<svg clip-rule="evenodd" fill-rule="evenodd" stroke-linecap="round" stroke-linejoin="round" stroke-miterlimit="1.5"
     viewBox="0 0 1561 438" xmlns="http://www.w3.org/2000/svg">
    <path d="M1374.64 312.799c.69-1.754 3.76-10.466 5.37-24.846 1.38-12.338 1.4-61.034 0-73.652-2.17-19.611-15.34-80.881-15.34-80.881l199.75 24.842s-10.97 11.234-14.6 17.378c-5.38 9.095-14.81 23.922-20.26 36.869-7.4 17.592-14.65 47.291-22.94 70.099-9.65 26.566-22.57 67.701-33.75 90.715-8.46 17.423-22.07 36.982-33.33 47.371-9.24 8.521-23.47 11.66-35.49 13.545-12.02 1.886-36.77.256-106.1-22.612-22.69-7.483-141.14 1.023-168.02 6.757-25.63 5.468-43.8 11.732-44.91 12.007-84.25 20.788-145.656-6.889-160.667-7.267-24.592-.62-120.796 24.383-159.324 26.2-49.342 2.327-46.058-1.292-115.647-24.057-37.826-12.374-46.833-23.521-86.424-26.674-57.149-4.551-128.296 23.431-153.655 29.24-34.12 7.817-91.285 9.604-117.709-4.709-19.315-10.463-27.819-26.317-56.252-14.814-12.015 4.861-27.699 19.553-32.491 27.362-4.447 12.542-8.366 12.336-8.696 0-.446-16.677 11.004-35.496 28.042-47.919 6.896-5.173 26.798-11.947 50.004-6.17 17.932 4.463 61.524 4.214 97.015 0 30.198-3.586 80.853-19.466 111.387-37.625 43.928-26.125 94.045-20.397 107.083-19.446 21.37 1.56 108.437 33.485 153.454 35.23 47.006 1.822 121.509-25.322 147.902-28.552 56.613-6.929 140.128 5.865 193.548-6.766 48.61-11.496 128.81-12.506 174.11-13.07 55.53-.693 102.5 40.506 117.94 1.445Z"
          fill="#AA910D" stroke="black" stroke-width="3.33px" transform="matrix(.99616 0 0 .99616 -12.425 -17.602)"/>
    <path d="m1510.95 184 52.26-26.141s-10.97 11.234-14.61 17.378c-5.37 9.095-14.8 23.922-20.25 36.869-7.4 17.592-14.65 47.291-22.94 70.099-9.65 26.566-22.57 67.701-33.75 90.715-8.47 17.423-20.84 35.832-32.1 46.221-9.24 8.521-20.01 9.717-30.75 12.059-16.34 3.563-41.05-3.714-41.05-3.714 16.38-1.698 34.69-9.369 41.2-16.754 11.25-12.758 25.98-34.378 46.98-79.928 7.05-15.296 12.54-34.774 17.56-46.914 9.48-22.948 14.79-54.169 22.65-72.377 4.33-10.011 14.8-27.513 14.8-27.513Z"
          fill="#DCBC00" transform="matrix(.99616 0 0 .99616 -12.585 -17.603)"/>
    <path d="M1308.905 381.604c2.62-2.347 12.831-2.262 12.831-2.262s-.508.47-.727.718c-11.127 12.703 40.743 48.528 95.661 23.892-27.115 29.037-116.67 20.432-141.853 17.254-.24.13-.369.198-.369.198s-60.995 7.386-67.779 6.682c-9.842-1.02-31.25-5.012-48.423-16.17-31.07-20.187-69.323-5.799-83.33-1.443-3.157.982-3.327 1.308-5.847 1.89-24.535 5.646-64.143 12.052-97.172 5.907-6.53-1.215-19.45-2.635-23.763-3.585-18.421 19.47-48.594 24-64.228 14.792-29.916-17.621-50.65-11.98-77.377-8.77l.243-.147c-2.371.82-4.507 1.56-4.613 1.634-36.666 26.005-101.286 14.665-134.284-2.924-2.046-1.09-18.825-.477-24.404-1-15.344-1.438-32.005-.39-38.728 3.924-16.01 10.274-43.763 12.338-74.514 10.361-29.344-1.887-40.342-13.662-44.902-16.79-21.162-14.51-43.594-13.414-57.855-3.403-11.169 7.84-38.044 15.264-43.019 15.723-25.857 2.39-62.23 6.34-90.077 0-36.92-8.406-62.334-28.22-62.476-28.344-1.316-1.142-2.705-.449-7.878 1.463-10.707 3.88-18.2 8.966-22.885 15.39-8.698 12.178-11.375 14.32-16.728 13.517-7.763-1.339-8.967-3.48-8.833-16.06.133-9.635.669-12.178 4.817-21.011 4.55-9.903 11.027-15.517 13.116-17.397.373-.337.996-.924 1.338-1.205.621-.508 3.613-3.613 8.03-6.424l10.125-5.883s12.162-6.99 18.898-7.181c42.078-1.198 46.718 47.756 233.572 0 58.743-15.013 122.27 10.136 181.71 8.155 65.778-2.193 172.543-14.697 216.263-15.005 15.966-.113 70.719-2.44 117.662 18.243 5.48 2.416 25.961.959 27.774-1.529 26.2-35.905 73.547-18.996 110.953-17.425 37.963 1.595 73.736 10.451 116.87 26.991 7.949 3.048 66.005 1.634 72.201 7.224Zm-1126.102 31.11c-.337-12.576 8.297-26.767 21.144-36.135 5.2-3.9 9.055-6.17 9.055-6.17s.394 2.273.581 2.959c.955 3.5 1.205 3.88 2.677 6.691 1.472 2.677 3.248 6.651 3.248 6.651s-3.382 2.048-6.996 4.323c-7.895 4.952-19.862 15.344-23.151 21.68-4.625 8.906-6.31 9.302-6.558 0Z"/>
    <path d="M446.083 428.557c-15.645 11.42-41.57 18.474-60.528 22.246-33.652 6.697-68.713 3.009-101.289-7.048-36.55-11.283-71.481-52.197-55.379-91.918 2.62-6.461 11.859-17.087 17.241-22.957 2.437-2.585 3.972-4.227 3.972-4.227s-1.617 1.658-3.972 4.227c-7.083 7.511-21.786 22.973-28.638 29.22-17.376 15.844-41.491 20.378-64.098 22.15l.672 16.39c.199 4.83.614 9.726-.142 14.5-1.786 11.287-15.396 13.938-22.297 20.388-3.052 2.852-4.186 7.311-7.014 10.387-10.987 11.95-28.113 14.607-43.496 14.509-14.241-.135-21.361-.806-29.153-2.821-5.561-1.467-11.647-3.481-15.815-7.779-4.156-4.286-6.329-10.809-7.695-16.404-4.115-16.854-6.595-30.168-8.464-47.423-.806-7.389-2.149-18.271-2.821-24.182-2.15-16.525-3.762-71.203-2.956-98.072.428-15.19.367-29.236 4.765-44.128 3.291-11.144 14.609-23.009 25.469-30.626 10.544-14.959 32.529-28.443 49.422-33.248 13.889-3.951 32.649-5.441 46.878-5.94 22.711-.797 43.878 2.144 67.775 7.406 18.538 4.082 30.758 11.9 46.571 22.302 16.727-17.796 44.655-36.172 71.105-23.609 5.911 2.821 18.11 14.482 19.585 24.952 1.942 13.785-8.202 40.438-7.933 41.244.94 2.418 1.757 6.108 13.049 8.896 9.111 2.249 5.219-1.901 4.353-12.717-.741-9.257.588-12.915 3.609-17.269 5.078-7.319 10.303-8.47 21.49-18.62 10.464-9.495 12.638-16.316 35.449-27.873 6.194-3.138 23.5-9.664 32.534-5.676 10.962 4.839 14.168 9.377 19.624 15.339 5.823 6.364 14.141 23.961 15.313 22.843 9.407-8.965 16.203-21.871 28.421-26.453 11.688-4.299 49.707-2.687 76.979 3.225 5.344 1.158 8.335.334 8.335.334s2.1-5.365 4.966-7.589c7.205-5.594 30.496-4.702 40.572-2.418 6.986 1.746 14.053 10.03 16.39 17.733 3.515 11.59 9.27 40.841 9.27 40.841s13.702-17.219 21.092-22.167c29.225-19.567 63.755-29.18 98.097-34.766 17.728-2.883 48.35-4.529 68.759 25.093 16.104 23.374 18.206 34.593 20.378 36.765.633.633 12.842-10.947 18.448-18.628 6.603-9.049 21.159-21.339 31.974-26.466 9.997-4.74 24.585-5.24 32.914-4.299 6.547.701 14.295 3.494 19.96 6.786 7.364 4.279 14.728 13.573 15.698 15.515.825 1.651 4.182-11.181 9.888-18.674 5.56-7.301 18.33-13.544 25.78-15.315 35.1-8.339 69.26-1.124 91.83 30.483 4.23 5.911 15.87 25.673 15.87 25.673s26.12-25.406 36.64-34.642c6.59-5.781 25.14-15.932 33.59-18.569 59.31-18.512 119.77 15.168 149.51 67.478 11.51 20.253 12.55 44.442 14.63 66.937.71 7.714 1.29 9.932-4.5 15.794-1.38 1.398-8.85 4.198-7.89 4.766 1.35.8 9.42 3.333 11.64 5.729 5.11 5.524 2.86 21.727 1.05 27.84-7.51 25.384-18.29 44.255-44.92 72.737-21.22 22.693-36.15 28.526-68.38 32.45-19.08 2.322-41.25-1.868-56.79-5.457-13.43-3.099-28.55-15.544-38.76-24.794-18.35-16.622-27.66-46.221-28.09-49.393-7.33 35.123-50.71 83.198-89.85 53.229-17.74-13.577-22.74-42.867-24.45-55.861-1.03-7.867 2.59-28.642-.4-30.228-2.98-1.623-5.17 2.51-6.4 4.196-4.43 6.067-5.33 8.726-11.74 13-3.66 2.383-2.88 7.6-3.09 11.151-.22 3.892-4.107 36.275-15.137 51.694-11.477 16.042-49.237 26.404-61.676 22.069-34.177-11.913-44.762-70.584-44.762-70.584s-4.777 66.262-80.917 77.59c-33.968 5.054-86.072-7.668-103.513-17.267-29.207-16.074-31.322-26.736-32.538-34.993-7.888 31.2-21.568 39.296-43.546 48.51-12.76 5.35-50.411 10.25-69.295 10.25-15.309 0-29.548-3.959-44.007-13.14-17.389-11.041-26.697-25.526-25.878-56.904-5.956 24.469-17.694 34.856-33.338 46.277Zm119.479-76.519c-.549-1.016-.957-2.104-1.352-3.189-1.015-2.79 2.968-3.823 4.903-3.966 1.097-.081 2.205.02 3.301-.083 1.173-.11 4.697-.95 5.313-.859.962.142 1.23 1.354 1.238 2.124.014 1.418-.302 3.432-.932 4.723-1.13 2.318-3.883 2.857-6.157 3.265-4.03.537-5.105.269-6.314-2.015Zm680.058-10.748c-1.41-.527-6.17-2.377-5.61-3.323.64-1.075 6.98-.857 8.93-.908 3.85-.099 11.77-.288 12.8.738.58.584-.96 2.72-1.48 3.359-2.55 2.956-6.85 3.09-14.64.134ZM157.557 266.729c0-7.255-2.149-9.942-11.016-13.435-1.625-.661-3.291-1.236-4.992-1.666a18.992 18.992 0 0 0-3.909-.584c-.757-.029-1.541.07-2.246.348-2.047.807-.845 3.633-.403 4.887 1.537 4.358 3.958 8.511 7.519 11.525 4.299 3.761 9.27 5.911 12.495 5.642 2.283-.269 2.686-1.209 2.552-6.717Zm404.851-11.64c0-1.247-.531-3.329-.988-4.476-1.958-4.917-2.283-5.423-5.225-9.817-.766-1.145-2.372-2.171-3.743-1.361-1.623.959-1.962 3.102-1.558 4.79.966 4.028 2.711 8.163 6.154 10.702.526.387 2.939 1.275 3.584 1.343.707.075 1.776-.313 1.776-1.181Z"
          fill="black100" transform="translate(-12.425 -17.603) scale(.99616)"/>
    <path d="M915.4 310c-24.7-5.8-43.7-17.5-55.9-34.5-5.3-7.5-11.357-19.863-12.4-23.3-3.85-12.682-.4-61.5.9-67.9 6.2-29.9 25.2-51.9 53.4-61.6 8.3-2.8 10.2-3.1 21.1-3.1 24.4.1 42.5 8.1 61.8 27.6 7.6 7.6 10.5 11.4 12.9 16.6 1.7 3.7 4.1 8.3 5.3 10.2 3.3 5.4 6.5 20 7.2 33 .5 10 .4 11.8-1.1 13.2-4 4.1-19.4 5.8-51.6 5.8-21.5.1-54.2-1.4-55.9-2.4-.4-.3-1.7.1-2.7.9-1.6 1.1-1.9 2.5-1.8 8.2.2 8.1 1.6 11.2 7.6 16.9 5.8 5.5 9.8 7.8 19.2 10.8 10.2 3.4 15.2 3.4 20.1 0 4.8-3.2 6.6-5.5 10.5-12.5 3.6-6.8 5.3-7.6 17.5-8.3 5-.4 13.2-1.1 18.3-1.7 11.8-1.5 20-.8 21.8 1.6 4 5.5-3.99 27.708-12 38.5-8.75 11.783-26.467 26.867-40.5 32.2-13.617 5.175-32.4 2.4-43.7-.2Zm37.901-121.205c6.999-3.55 7.1-5.8 1-11.5-2.6-2.3-7.8-5.9-11.6-7.9-9.5-5-16.4-5.1-24.7-.4-9.3 5.2-14.9 12.1-12.5 15.4 1.9 2.6 7.7 5.7 12.1 6.5 2.6.5 10.6.8 17.7.6 11.5-.2 13.6-.5 18-2.7Z"
          fill="#6AF02A" fill-rule="nonzero" transform="translate(-9.911 -17.817) scale(1.33829)"/>
    <path d="M915.4 310c-24.7-5.8-43.7-17.5-55.9-34.5-5.3-7.5-10.857-18.587-12.401-23.494-.783-2.491-1.136-5.539-1.25-7.344 0 0 4.186-1.531 6.322-3.529 2.321-2.172 5.349-6.815 7.25-7.309 4.225-1.099 8.042 11.325 8.902 11.847.861.522 9.805.825 10.691-.2 4.392-5.085 11.414-9.326 14.417-5.232 1.81 2.468 4.106 6.779 6.726 7.862.949.392 2.17-.069 2.17-.069s2.413 2.076 2.586 2.236c5.428 5.024 9.477 7.256 18.487 10.132 10.2 3.4 15.2 3.4 20.1 0 3.645-2.43 5.56-4.341 7.978-8.185.767-1.218 6.142.883 13.775-2.699 11.122-5.218 12.184-9.464 15.998-6.703 4.475 3.241 6.36 2.195 12.593 2.511 10.536.535 11.466-8.111 15.086-6.972 1.2.38 2.22.548 2.67 1.148 4 5.5-3.99 27.708-12 38.5-8.75 11.783-26.467 26.867-40.5 32.2-13.617 5.175-32.4 2.4-43.7-.2Z"
          fill="#C1FD20" fill-rule="nonzero" transform="translate(-9.911 -17.817) scale(1.33829)"/>
    <path d="M1006.3 184.38c.26 1.016-6.02-5.028-12.301-3.604-12.716 2.881-10.811 8.243-15.902 9.097-6.131 1.029-10.615-10.838-11.239-8.061-.977 4.35-3.023 8.96-9.377 4.415-.354-.253 2.028-1.02.895-3.992-2.081-5.456-20.19-18.073-30.524-16.627-11.425 1.598-24.413 12.927-22.688 18.177.762 2.32.473 6.536-5.126 6.309-10.029-.269-10.653-10.418-17.871-9.267-6.782 1.082-10.575 11.345-14.941 14.954-2.681 2.217-5.067-8.685-12.463-8.772-3.062-.036-4.315 2.396-5.671 3.659-.755.703-1.692.557-1.669.138.176-3.178.37-5.487.577-6.506 6.2-29.9 25.2-51.9 53.4-61.6 8.3-2.8 10.2-3.1 21.1-3.1 24.4.1 42.5 8.1 61.8 27.6 7.6 7.6 10.5 11.4 12.9 16.6 1.7 3.7 4.1 8.3 5.3 10.2 1.34 2.188 2.66 5.888 3.8 10.38Z"
          fill="#08DF1C" fill-rule="nonzero" transform="translate(-9.911 -17.817) scale(1.33829)"/>
    <path d="M846 189.4c1.264 9.922 1.132 17.789.485 33.835-.662 16.429-2.878 31.338-3.485 33.665-3.1 12.2-6.9 19.8-12.6 25.4-7.6 7.3-13.9 9.6-23 8.2-4-.6-5.5-1.6-11.3-7.3-8.2-8.2-11.7-15.1-12.5-24.7-.7-7.2.1-13.7 4.8-37.8 1.3-7.1 2.8-17.2 3.1-22.6.7-9.2.6-10-1.9-14.9-4.5-8.9-9.5-8.9-11.1.1-2.1 11.7-10.5 43.7-12.6 48.2-4.8 10.2-12.2 12.6-19.8 6.6-3.8-3-11.9-14.6-23.4-33.1-2.5-4.2-6.3-9.5-8.3-11.9-3.3-3.8-3.8-4.1-5.2-2.7-2 2-3.875 11.728-1.2 20.2 1.2 3.8 12.1 24.4 14.5 27.4 1.3 1.6 5.7 10.1 9.6 18.5 4.4 9.4 3.4 25.7-2.2 36.8-3 5.9-9.6 12.5-14.8 14.8-6 2.7-18.8 3.1-24.4.6-5.1-2.2-14.5-11.9-18.3-18.7-8.3-14.8-14.7-37-16.5-57-3.3-35.5 5.8-74.3 20.8-89.4 8.3-8.3 20.3-13.6 31.1-13.6 6 0 7.5.4 13.1 3.8 3.5 2 8.2 5.9 10.5 8.6 6.1 7.3 7.175 9.6 9.6 9.6s3.906-5.483 6.035-11.736c1.947-5.718 1.638-8.837 5.965-13.164 8.5-8.5 35.3-11.6 50-5.9 14.6 5.7 28.9 22.7 35.9 42.5 2.6 7.3 5.977 16.884 7.1 25.7Z"
          fill="#6AF02A" fill-rule="nonzero" transform="translate(-9.911 -17.817) scale(1.33829)"/>
    <path d="M784.747 240.624c.223-1.397 4.268 5.759 10.39 8.654 1.309.619 8.54-10.116 18.424-10.15 3.629-.012 6.262.549 12.942 10.063 1.293 1.841 5.746 2.184 11.71.057 4.835-1.724 6.634-4.976 6.581-4.514-.737 6.399-1.48 10.963-1.794 12.166-3.1 12.2-6.9 19.8-12.6 25.4-7.6 7.3-13.9 9.6-23 8.2-4-.6-5.5-1.6-11.3-7.3-8.2-8.2-11.7-15.1-12.5-24.7-.45-4.628-.28-8.967 1.147-17.876ZM672.4 290c-6.066-10.816-14.129-40.744-14.129-40.744 4.158 1.817 6.422 2.613 8.758.796 2.715-2.112 4.814-10.302 8.632-8.659 3.071 1.323 6.941 8.938 9.564 10.181 3.969 1.881 6.814-7.221 10.702-7.483 8.394-.568 13.621 1.704 16.624-3.176 2.205-3.583 6.618-1.647 7.195-1.167 2.656 2.21 3.175 9.702 7.156 10.547 1.454.308 1.751-.989 1.751-.989s2.311 4.747 3.447 7.194c4.4 9.4 3.4 25.7-2.2 36.8-3 5.9-9.6 12.5-14.8 14.8-6 2.7-18.8 3.1-24.4.6-5.1-2.2-14.5-11.9-18.3-18.7Z"
          fill="#C1FD20" fill-rule="nonzero" transform="translate(-9.911 -17.817) scale(1.33829)"/>
    <path d="M844.298 180.688c.061.278-2.636 1.812-3.53 2.855-3.3 3.852-.979 11.223-4.274 13.109-2.888 1.653-5.201-.474-5.658-.881-4.244-3.778-8.462-14.295-17.75-13.737-7.728.464-12.364 9.318-17.533 8.268-3.18-.646-5.503-6.221-5.953-7.102-2.558-5.058-4.807-6.836-7.064-6.527-.72.099-2.413 1.077-3.444 4.196-.102.568-1.864-1.343-2.856-.181-3.46 4.052-4.494 1.607-5.121 2.417-2.287 2.953-4.424 3.003-6.763 2.549-2.709-.526-4.524-5.11-4.524-5.11-.497 4.642-.771 12.399-7.585 7.37-3.916-2.891-6.778-6.91-11.314-7.073-6.826-.244-14.159 3.893-14.27 7.122-.259 7.521-3.595 7.549-4.229 7.526-3.782-.135-8.137-6.378-9.609-8.27-1.789-2.299-10.147-9.299-12.872-7.914-9.563 4.861-2.631 10.453-6.977 16.275-1.142 1.529-4.929 2.004-7.781.25-4.288-2.637-7.837-8.48-8.079-8.737-2.608-2.763-4.556-2.777-6.884-4.041-1.654-.898-3.287-2.634-3.768-4.401-.377-1.386-6.486-.221-6.486-.221s3.848-13.178 6.34-18.728c2.988-6.652 6.488-12.178 10.386-16.102 8.3-8.3 20.3-13.6 31.1-13.6 6 0 7.5.4 13.1 3.8 3.5 2 8.2 5.9 10.5 8.6 6.1 7.3 7.127 9.6 9.6 9.6s3.902-5.472 6.091-11.896c1.942-5.699 1.696-8.791 5.909-13.004 8.5-8.5 35.3-11.6 50-5.9 14.6 5.7 28.9 22.7 35.9 42.5 2.6 7.3 3.301 7.434 5.398 16.988Z"
          fill="#08DF1C" fill-rule="nonzero" transform="translate(-9.911 -17.817) scale(1.33829)"/>
    <g>
        <path d="M572 312.9c-9.5-1-23-4.1-30.5-7.1-28.7-11.2-44.3-25.9-47.5-44.9-2.6-15.1 1.4-26.9 14.9-44.8 3.9-5.1 15.1-13.6 23.3-17.6 6.3-3.1 8.6-3.7 17-4.2 9.3-.5 10.1-.4 18 2.6 4.6 1.8 10.8 4.6 14 6.2 3.1 1.6 7.6 3.2 10 3.5 4 .6 4.6.3 8.8-3.4 4.3-3.8 4.5-4.2 4.4-9.4-.1-3-.9-7-1.8-8.9-2.1-4.4-10.6-13.9-15.5-17.3-3.7-2.6-4.2-2.7-9.7-1.7-3.2.6-7.6 2-9.8 3.2-4.7 2.4-10.917 7.9-14.6 10.9-2.669 2.174-3.4 3.6-7.5 7.1-6.3 5.4-8.5 6.6-13.3 7.6-5.8 1.1-14.2.4-18-1.6-6.6-3.6-10.5-13.3-10.6-26.6-.1-5.2.3-6.6 3.2-10.8 5.3-7.6 11-12.2 21.7-17.6 10.5-5.3 25.974-10.713 33-12.5 2.609-.664 9.304-2.28 14-3.1 22.837-3.986 35.9-1.5 43.4 4.6 2.3 1.9 6 5.8 8.2 8.7 4.8 6.3 10.436 14.462 13.9 22.6 3.817 8.967 6.7 19.4 9 31.2 1.9 9.9 2.1 13.9 1.7 34.5-.4 25.3-.9 29.1-6.7 46-5 14.3-8.6 20.6-16.4 28.5-11.1 11.1-18.5 14.1-36.6 14.8-6.3.3-15.3.1-20-.5Zm-4.245-44.375c7.755 2.799 15.596 3.002 20.144 1.054 1.58-.677 3.265-2.642 4.324-6.666.203-.77.101-1.399.081-1.592-.367-3.609-3.165-7.851-8.496-12.566-10.8-9.7-19.798-10.565-27.798-3.165-3.562 3.288-4.974 6.047-4.767 8.689.095 1.214.639 2.644 1.291 3.815 2.93 5.262 7.764 7.739 15.221 10.431Z"
              fill="#6AF02A" fill-rule="nonzero" transform="translate(-9.911 -17.817) scale(1.33829)"/>
        <path d="M572 312.9c-9.5-1-23-4.1-30.5-7.1-28.7-11.2-44.3-25.9-47.5-44.9-.859-4.989-.311-14.225-.311-14.225s1.636 2.265 7.719-5.294c6.07-7.545 10.129 9.262 17.062 9.403 2.595.053 9.113.699 19.348-10.289 4.333-4.652 10.33-2.806 9.901 1.59-.769 7.888 3.464 12.189 3.464 12.189s.985 5.423 5.092 8.435c6.461 4.738 18.478 9.818 30.08 7.441 3.871-.792 5.374-4.902 5.864-7.456.771-4.011-3.95-9.393-3.95-9.393s3.768.774 7.184-1.129c5.066-2.822 10.894-13.559 17.939-20.778 5.682-5.82 13.338 2.309 11.538 10.455-.321 1.45 3.403 5.975 4.506 6.152 1.156.185 5.762-5.496 11.424-6.911 5.932-1.482 10.268 1.646 10.224 2.28-.691 9.966-2.198 15.408-6.084 26.73-5 14.3-8.6 20.6-16.4 28.5-11.1 11.1-18.5 14.1-36.6 14.8-6.3.3-15.3.1-20-.5Z"
              fill="#C1FD20" fill-rule="nonzero" transform="translate(-9.911 -17.817) scale(1.33829)"/>
        <path d="M637.883 182.841c-3.238 2.984-6.146 11.346-10.063 12.208-1.303.287-3.265-3.923-3.68-4.677-2.543-4.62-4.973-11.927-13.787-10.825-3.889.486-3.822 4.056-4.884 5.019-1.667 1.514-2.788.504-2.869.334-2.1-4.4-10.6-13.9-15.5-17.3-3.7-2.6-4.2-2.7-9.7-1.7-3.2.6-7.6 2-9.8 3.2-4.7 2.4-14.6 10.9-14.6 10.9s-2.918-1.543-8.483 2.659c-3.462 2.615-4.22.774-6.044 1.693-1.286.648-2.203 3.513-4.612 4.015-1.113.211-2.673-2.693-5.067-2.849-2.918-.189-3.176 3.834-8.757 2.983-2.347-.358-1.957-2.276-3.984-3.146-1.731-.743-3.621-.36-3.7-.633-1.161-4.024-4.482-4.579-5.845-4.39-.282.039-1.277-.611-1.365-.949-.975-3.746-1.507-8.08-1.543-12.883-.1-5.2.3-6.6 3.2-10.8 5.3-7.6 11-12.2 21.7-17.6 10.5-5.3 26.307-10.811 33-12.5 2.168-.547 11.282-2.607 14-3.1 22.809-4.14 35.9-1.5 43.4 4.6 2.3 1.9 6 5.8 8.2 8.7 7.548 9.949 10.542 15.709 13.9 22.6 2.885 5.921 6.246 18.747 6.246 18.747s-6.57 3.121-9.363 5.694Z"
              fill="#08DF1C" fill-rule="nonzero" transform="translate(-9.911 -17.817) scale(1.33829)"/>
    </g>
    <g>
        <path d="M362.735 219.125c-.3 0-2.535-33.525-2.535-33.525l-.4-11.5c-.6-14.4.4-21.9 3.8-26.8 1.4-2.1 3.7-6 5.1-8.8 3.1-6.2 7.6-11 12.8-13.8 6.2-3.3 24.3-3 44 .8 8.3 1.6 17 2.9 19.5 2.9 4.2.1 4.5-.1 4.5-2.6 0-4 2.5-5.8 9.6-6.8 7.4-1.1 15.7.3 18.8 3.1 3 2.9 7.8 20.8 10.5 39.9 7 49.7 4.2 108.8-6 129.2-4.9 9.6-19.3 18-35.4 20.5-13.8 2.1-40.8 1.3-51-1.7-14-4-23-11.1-28.5-22.4-4.7-9.8-6.2-19.8-4.7-31.1 1.5-11.7 3.3-15.2 8.6-16.6 5.9-1.7 13.4-2.1 18.6-1 2.5.6 6.6 1.3 9.2 1.6 3.6.5 5.7 1.5 8.4 4.1 3.6 3.4 3.7 3.5 3.1 9.5-.8 6.7.6 11.2 4.4 14.8 2.8 2.6 7.8 2.7 15.7.5 11.2-3.2 17.2-7.5 20.4-14.5 2.5-5.7 4.2-20.3 3.3-28.6l-.8-6.8-1.2 3.4c-1.4 4.2-4.8 6.9-10.1 8.1-7.5 1.7-34.1 3.2-50.4 2.8-20.2-.4-22.8-1.3-26.8-9.5-1.4-2.9-2.065-5.175-2.465-5.175ZM432.9 194.5c11.9-6.1 13.4-29.8 2.5-38.4-5.3-4.2-23-2.2-27.4 3.1-2.7 3.3-4.9 10.2-5.6 17.8-1 10.4 2.6 15.8 12.6 19.1 3.6 1.2 14.4.3 17.9-1.6Z"
              fill="#6AF02A" fill-rule="nonzero" transform="translate(-9.911 -17.817) scale(1.33829)"/>
        <path d="M609.747 341.481c1.217-2.372 2.415-3.146 4.582-3.146 2.553 0 5.643-2.687 12.897-11.285 5.24-6.18 10.479-11.688 11.554-12.091 5.105-2.015 7.12-.806 8.732 4.97 2.284 8.733 6.18 14.375 10.076 14.375.352 0 .666.008.946.033 2.524-2.119 3.978-2.027 3.534 2.958-2.094 23.462-5.985 42.741-11.466 53.703-6.582 12.897-25.928 24.182-47.558 27.541-7.495 1.14-17.889 1.644-28.519 1.573-1.515.058-2.785.074-3.723.039-.542-.029-1.296-.076-2.207-.138-13.682-.363-26.933-1.66-34.066-3.758-18.809-5.374-30.9-14.913-38.289-30.094-6.314-13.165-8.329-26.6-6.314-41.781.239-1.863.483-3.571.741-5.139.171-1.04 4.148-1.026 4.963-1.541 1.59-1.004 4.415-2.957 6.79-5.142 9.807-9.27 14.106-11.957 18.808-11.419 4.434.403 5.912 2.015 7.121 8.06.94 4.434 6.314 6.449 17.599 6.449l8.7.136s-.011 1.009-.086 2.154c-.083 1.26-.232 2.69-.285 3.218-1.075 9.001.806 15.047 5.911 19.883 3.762 3.493 10.479 3.627 21.093.672 15.046-4.299 23.107-10.076 27.406-19.48.222-.508.58-.738 1.06-.75Z"
              fill="#C1FD20" fill-rule="nonzero" transform="translate(-12.425 -17.603) scale(.99616)"/>
        <path d="M597.026 239.487s2.497-21.018-9.481-29.833c-9.828-7.382-33.654-.481-36.95 3.948-6.494 8.729-7.124 24.763-7.6 25.476 0 0-9.061 6.697-12.017 12.474-4.567 9.135-11.27 9.4-13.554.13-.403-1.746-3.585-4.03-6.271-5.239-2.419-1.075-5.04-3.953-5.981-5.162-2.552-3.09-4.633-1.555-12.022 4.49l-6.517 4.611-.2-1.252-.537-15.45c-.806-19.346.537-29.421 5.105-36.004 1.881-2.822 4.971-8.061 6.851-11.823 4.165-8.329 10.211-14.778 17.197-18.539 8.329-4.434 32.645-4.031 59.111 1.075 11.151 2.149 22.839 3.896 26.197 3.896 5.643.134 6.046-.135 6.046-3.493 0-5.374 3.359-7.792 12.897-9.136 9.942-1.478 21.092.403 25.257 4.165 4.03 3.896 10.479 27.944 14.106 53.603 1.763 12.52 3.064 25.483 3.922 38.463-.372-4.255-.856-6.742-1.447-6.653-5.911.671-10.267.03-13.76-3.866l-3.896-4.165s-5.176 5.473-11.221 6.36c-3.624.532-8.931-3.135-8.931-3.135-2.101 1.033-2.572 3.752-4.26 5.243-5.549 4.902-7.562 7.923-13.473-3.362-3.181-13.583-6.891-11.622-8.571-6.822"
              fill="#08DF1C" fill-rule="nonzero" transform="translate(-12.425 -17.603) scale(.99616)"/>
    </g>
    <g>
        <path d="M193.432 190.684c-.164-.274-2.142-4.414-2.467-10.616-.615-11.703.035-29.718.035-30.568 0-3.5 2.8-11.4 5.8-16.1 2.8-4.6 13.3-12 19.4-13.8 2-.6 14.4-2.5 18.8-.5 5.6 2.5 8.6 5.3 11.2 10.3 2.4 4.7 2 8.8-2.3 22.6-1.6 5.2-2.9 10.2-2.9 11.1 0 2.5 4.7 7.7 8.9 9.8 10.3 5.2 30 4.6 39.2-1.1 4.9-2.9 7.9-7 7.9-10.4 0-1-1.6-5.1-3.5-9.1-4.6-9.2-5.4-15.6-2.6-20 4.4-7 20.9-16.9 29.9-18 9.6-1.1 18.5 5.2 26.8 19.2 4.5 7.4 11.444 23.2 11.444 27.9.1 3.5 3.278 57.517 2.878 57.517-.3 0-.922 3.783-1.222 8.383-1 15.5-5.3 33.3-11 45.7-5.5 12.2-6.2 13.2-12.8 19.4-15.7 14.5-33.1 20.6-58.7 20.6-32.3 0-59.9-10.2-76.9-28.3-7.9-8.5-10.7-15.4-10-25 .9-13 10.5-27.2 20.1-29.6 6.8-1.7 19.1.5 25.6 4.6 2.9 1.8 6.9 6.3 7 7.8 0 2.3 6.3 8.4 9.7 9.6 9.3 3 29.8-2.8 37.9-10.7 8.2-8.1 9-13.5 2.7-16.7-5.7-2.9-10.6-2.8-25.5.4-16.5 3.5-25.6 3.9-37.7 1.5-17.1-3.3-25-9.3-32.6-24.9-2.5-5.1-4.947-10.814-5.068-11.016Z"
              fill="#6AF02A" fill-rule="nonzero" transform="translate(-8.841 -17.55) scale(1.33829)"/>
        <path d="M267.39 327.472c.07-.122 7.981-5.503 11.749-4.587 1.881.403 6.314 3.627 9.807 6.986 5.777 5.777 6.449 6.046 10.345 4.702 2.284-.806 6.986-3.627 10.344-6.18 7.658-5.911 11.151-6.045 15.047-.806 1.746 2.284 3.762 4.03 4.568 4.03.94 0 3.896 1.613 6.717 3.493 6.852 4.837 14.375 6.046 27.272 4.434 17.733-2.15 19.346-2.553 22.704-5.643a605.958 605.958 0 0 1 7.524-6.314c2.418-1.881 6.717-5.374 9.672-7.658 7.927-6.582 15.853-5.642 15.853 1.747 0 1.612.537 3.224 1.343 3.493.672.269 1.478 1.746 1.747 3.359.806 5.373 3.627 7.254 10.21 6.985 7.389-.403 9.539-1.477 18.137-9.001 10.613-9.269 15.718-8.866 17.868 1.478.806 4.031 4.97 7.658 8.866 7.658 1.071 0 2.352.737 2.911 1.652 1.538-.621 3.01.686 2.94.972-2.55 10.446-5.855 20.368-9.613 28.543-7.389 16.39-8.329 17.733-17.196 26.063-21.092 19.48-44.468 27.675-78.861 27.675-43.393 0-80.472-13.704-103.311-38.02-10.613-11.419-14.375-20.689-13.434-33.586.505-7.302 3.054-14.886 6.791-21.475Z"
              fill="#C1FD20" fill-rule="nonzero" transform="translate(-12.425 -17.603) scale(.99616)"/>
        <path d="M260.323 244.206a44.523 44.523 0 0 1-.175-2.24c-.826-15.724.048-39.926.048-41.067 0-4.702 3.761-15.315 7.792-21.63 3.761-6.18 17.868-16.121 26.063-18.539 2.687-.806 19.345-3.359 25.257-.672 7.523 3.359 11.553 7.12 15.046 13.838 3.224 6.314 2.687 11.822-3.09 30.361-2.149 6.986-3.896 13.704-3.896 14.913 0 3.358 6.314 10.344 11.957 13.166 13.837 6.985 40.303 6.179 52.663-1.478 6.583-3.896 10.613-9.404 10.613-13.972 0-1.344-2.149-6.852-4.702-12.225-6.18-12.36-7.254-20.958-3.493-26.869 5.911-9.405 28.078-22.705 40.169-24.183 12.897-1.477 24.854 6.986 36.005 25.795 6.045 9.941 15.374 31.168 15.374 37.482.065 2.254 1.766 32.726 1.766 32.726s-8.68 7.518-11.023 8.623c-4.032 1.9-6.138-.437-7.729-5.209-2.418-7.389-5.642-10.21-12.628-11.016-5.105-.538-6.314-.135-9.807 3.224-4.971 4.836-10.614 8.464-13.3 8.464-3.762 0-7.524-5.643-7.524-11.017 0-2.821-.671-5.105-1.478-5.105-.671 0-4.164 2.15-7.523 4.702-7.12 5.508-9.135 5.777-13.3 1.881l-3.09-2.821-5.642 6.18c-6.583 7.254-12.763 8.463-16.525 3.224-1.075-1.747-3.493-4.836-5.239-6.852-3.225-3.761-3.225-3.761-8.33-1.746-2.821 1.209-6.045 3.358-6.986 4.971-1.612 2.283-3.224 2.552-10.747 2.283-6.986-.268-9.001.135-9.942 2.016-2.284 3.896-5.373 2.552-14.24-5.912-9.807-9.404-11.688-9.538-19.211-1.209-4.703 5.105-11.688 9.405-15.181 9.405-.941 0-3.628-2.016-6.046-4.3-6.314-6.717-12.628-9.672-18.271-8.598-2.391.456-3.81 1.344-3.81 1.344s.163 1.679.175 2.062Z"
              fill="#08DF1C" fill-rule="nonzero" transform="translate(-12.425 -17.603) scale(.99616)"/>
    </g>
    <g>
        <path d="M66 313.1c-8.5-1.1-14.7-3.1-16.9-5.6-3.6-4.1-9.6-33.4-11.6-57-.4-3.8-.8-7.2-1-7.5-1-1.6-2-29.3-2-53.5 0-28.2-1.85-48.376 21.583-63.279 9.509-6.049 31.637-11.426 65.371-8.711 36.275 2.92 52.746 11.89 59.246 18.59 6 6.2 7.172 8.044 10.365 17.722 1.216 3.685.35 19.154.535 26.214.164 6.234.67 12.464 0 18.664-.783 7.25-1.8 13.5-5.3 24.8-1.7 5.4-8.9 14.8-15.7 20.2-2.3 1.8-4.6 3.7-5.2 4.2-2.5 2-10.9 5.3-18.2 7.1-5 1.2-16.345 2.29-23.734 2.363-7.105.071-16.39.836-20.356 2.313-1.782.663-3.139 1.409-4.379 3.417-.373.606.291 4.127.586 5.521.897 4.237 1.27 6.538 2.072 9.769 1.513 6.098 5.318 20.764 3.121 25.076-3.962 7.777-13.91 9.641-22.21 10.041-5.4.2-12.7 0-16.3-.4Zm57.7-102.2c11.4-4.2 18.3-15.7 18.3-30.4 0-6.7-.2-7.4-3.5-11.2-4.2-4.9-9.7-7.3-18.6-8-16.9-1.4-27.7 8.1-28.7 25.4-.4 6.4-.1 7.8 2.2 11.7 6.3 10.8 19.9 16.4 30.3 12.5Z"
              fill="#6AF02A" fill-rule="nonzero" transform="translate(-10.125 -18.324) scale(1.33829)"/>
        <path d="M98.4 309.2c-7.33 4.305-19.357 4.866-31.306 3.999-5.597-.406-17.594-3.472-19.294-7.672-2.7-6.6-7.019-26.392-9.419-45.492-1-7.4-.181-8.435 1.419-10.535 3.5-4.4 11.3-10.5 13.5-10.5 1.3 0 3.7 1.3 5.5 3 4.8 4.4 7.2 4.6 12.7 1.4 2.6-1.5 4.9-3.3 5.2-4 .3-.8 1.1-1.4 1.8-1.4.6 0 2-.9 3-2 2.4-2.7 7.1-2.6 8.5.1.7 1.1 1 3.9.8 6.2l-.3 4.2 4.9-.1c3.6 0 5.2-.5 6.5-2.1 1.8-2.3 5.2-4.3 7.5-4.3.8 0 2 1.6 2.7 3.5 1.5 4.1 2.6 4 9.4-.6 6.6-4.4 10.8-3.5 11.9 2.6.7 3.4.8 3.5 5.6 3.5 4.5 0 5.3-.4 9.5-4.4 4.4-4.3 8.1-6.4 9.2-5.2.3.3.8 2 1.2 3.8.5 2.3 1.3 3.4 3.1 3.8l2.683.897s-1.498 1.031-3.306 1.846c-2.751 1.24-6.267 2.47-6.677 2.657-5.7 2.6-17 4.3-30.3 4.5-17 .3-22.1 2.217-25.9 6-.288 1.832 1.1 8.6 3.1 16.7 2 8.2 3.6 16.6 3.7 18.6.2 4.2-2.4 8.4-6.9 11Z"
              fill="#C1FD20" fill-rule="nonzero" transform="translate(-9.911 -17.817) scale(1.33829)"/>
        <path d="M49.619 242.099c-2.405-1.996-3.429-4.458-2.161-22.002.396-5.481 1.281-12.165 2.656-17.565 8.623-33.858 43.942-49.226 105.22-45.784 64.251 3.61 95.134 20.515 101.958 49.551 1.297 5.517.946 10.124.96 15.67.003 1.085-.357 5.117-.334 11.961.013 3.612.107 8.313.137 8.802-.977.279-6.718 4.147-8.139 3.851-1.421-.296-4.344-1.936-6.494-3.645-7.3-5.801-18.936-2.352-25.968 7.697-7.842 11.208-14.799 8.617-17.87-6.655-.573-2.85-8.295-5.881-8.295-7.724 0-6.608-8.755-13.696-11.175-14.921-7.209-3.646-16.771-5.811-26.14-4.996-14.936 1.297-30.979 12.017-30.979 36.288 0 6.413-9.038-8.254-8.277-10.377.936-2.609-2.796-1.095-6.431 2.609-4.926 5.019-16.2 12.388-17.934 11.723-2.946-1.131-.346-9.521 4.37-14.102 4.6-4.466 3.354-6.904-1.9-3.719-1.828 1.108-6.149 3.03-9.604 4.272-4.526 1.627-7.09 3.278-9.175 5.911-5.7 7.197-23.044 3.919-23.044-4.356 0-.739-.621-1.859-1.381-2.489Z"
              fill="#08DF1C" fill-rule="nonzero" transform="translate(-10.728 -17.972) scale(.99616)"/>
    </g>
    <g>
        <path d="M1543.54 151.836c25.42.005 46.06 20.655 46.06 46.086-.01 25.43-20.66 46.073-46.08 46.068-11.89-.002-22.72-4.514-30.9-11.914l-.12-.112-66.13-.04s-.11.099-.16.148c-8.18 7.392-19.01 11.895-30.89 11.893-25.43-.005-46.07-20.655-46.06-46.086 0-25.431 20.65-46.073 46.08-46.068l128.2.025Z"
              fill="#CBCFCC" stroke="black" stroke-width="2.65px"
              transform="scale(.99616) rotate(7 1479.954 -129.036)"/>
        <path d="M671.126 294.011c17.661-.094 32.075 14.169 32.169 31.83.093 17.661-14.169 32.075-31.83 32.169-17.661.094-32.076-14.169-32.169-31.83-.094-17.661 14.169-32.076 31.83-32.169Z"
              fill="#465D63" transform="matrix(1.23783 .15206 -.15207 1.23798 715.078 -303.347)"/>
        <g fill="#C8D0D2" fill-rule="nonzero">
            <path d="m671.925 328.927 2.372-3.663-2.184-3.333 1.651-.009 1.414 2.24 1.363-2.255 1.636-.008-2.158 3.409 2.41 3.585-1.703.009-1.564-2.411-1.543 2.427-1.694.009Z"
                  transform="matrix(.70714 .08687 -.08688 .70722 1064.407 -111.077)"/>
            <path d="m674.752 329.265-.016-2.944-2.583-4.037 1.655-.009 1.661 2.759 1.598-2.776 1.627-.009-2.55 4.074.016 2.935-1.408.007Z"
                  transform="matrix(.70714 .08687 -.08688 .70722 1012.784 -79.805)"/>
            <path d="m673 322.152 2.797-.015c.553-.003.966.018 1.238.063.272.044.516.139.732.284.215.146.395.339.54.582.144.243.217.515.219.817.002.328-.085.629-.26.903a1.646 1.646 0 0 1-.715.62c.427.122.756.331.986.629.231.298.347.649.349 1.053.002.318-.07.628-.217.929a1.863 1.863 0 0 1-.602.724c-.255.181-.57.293-.945.337-.235.026-.803.045-1.703.056l-2.381.013-.038-6.995Zm1.419 1.157.009 1.617.925-.005c.551-.003.893-.013 1.026-.029.242-.03.431-.115.569-.254a.737.737 0 0 0 .205-.547.77.77 0 0 0-.182-.526c-.12-.135-.298-.216-.533-.243-.14-.015-.543-.021-1.208-.018l-.811.005Zm.015 2.781.01 1.871 1.307-.007c.509-.003.832-.019.969-.048a.872.872 0 0 0 .511-.282c.131-.149.196-.347.195-.595a.91.91 0 0 0-.156-.534.86.86 0 0 0-.443-.317c-.193-.066-.61-.097-1.253-.094l-1.14.006Z"
                  transform="matrix(.70714 .08687 -.08688 .70722 1027.933 -61.94)"/>
            <path d="m679.066 328.752-1.536.008-.619-1.586-2.796.015-.569 1.592-1.499.008 2.688-7.009 1.493-.008 2.838 6.98Zm-2.615-2.754-.977-2.59-.931 2.6 1.908-.01Z"
                  transform="matrix(.70714 .08687 -.08688 .70722 1080.774 -92.506)"/>
        </g>
        <g>
            <path d="M733.575 310.063c-.025-7.24-3.854-13.086-8.545-13.048-4.691.039-8.48 5.947-8.455 13.187l.126 36.765c.025 7.24 3.854 13.086 8.545 13.048 4.691-.039 8.48-5.947 8.455-13.187l-.126-36.765Z"
                  fill="#D1D1CD" transform="matrix(.63873 .97897 -.63434 .41398 1231.773 -652.184)"/>
            <g fill="#BE0003">
                <path d="M678.152 355.215a7.926 7.926 0 0 1 7.964 7.881c.024 4.372-3.507 7.94-7.88 7.964a7.926 7.926 0 0 1-7.964-7.881 7.927 7.927 0 0 1 7.88-7.964Z"
                      transform="matrix(.54522 .83565 -.83556 .5453 1409.453 -563.946)"/>
                <path d="M678.015 355.216a7.927 7.927 0 0 1 7.964 7.88 7.926 7.926 0 0 1-7.88 7.964 7.926 7.926 0 0 1-7.964-7.88 7.925 7.925 0 0 1 7.88-7.964Z"
                      transform="matrix(.54522 .83565 -.83556 .5453 1431.177 -578.124)"/>
            </g>
        </g>
        <g>
            <path d="M733.551 309.883c-.025-7.24-3.854-13.086-8.545-13.047-4.691.038-8.48 5.946-8.455 13.186l.126 36.766c.025 7.239 3.854 13.085 8.545 13.047 4.691-.039 8.48-5.947 8.455-13.186l-.126-36.766Z"
                  fill="#D1D1CD" transform="matrix(.63873 .97897 -.63434 .41398 1250.212 -633.482)"/>
            <g fill="#BE0003">
                <path d="M678.124 355.079a7.926 7.926 0 0 1 7.964 7.88 7.926 7.926 0 0 1-7.88 7.964 7.926 7.926 0 0 1-7.964-7.88 7.926 7.926 0 0 1 7.88-7.964Z"
                      transform="matrix(.54522 .83565 -.83556 .5453 1427.882 -545.246)"/>
                <path d="M677.987 355.079a7.927 7.927 0 0 1 7.964 7.88 7.926 7.926 0 0 1-7.881 7.964 7.926 7.926 0 0 1-7.964-7.88 7.926 7.926 0 0 1 7.881-7.964Z"
                      transform="matrix(.54522 .83565 -.83556 .5453 1449.616 -559.422)"/>
            </g>
        </g>
        <g>
            <path d="M594.538 371.767c.001-1.771-1.207-3.211-2.696-3.212l-13.604-.015c-1.489-.001-2.699 1.436-2.7 3.207-.002 1.771 1.206 3.21 2.695 3.212l13.604.014c1.489.001 2.699-1.435 2.701-3.206Z"
                  fill="#334249" stroke="black" stroke-width="2.64px"
                  transform="matrix(.82676 -.49745 .41816 .69517 774.41 231.48)"/>
            <path d="M592.669 374.588c0-1.772-1.208-3.21-2.698-3.21l-13.603-.002c-1.49 0-2.699 1.438-2.699 3.209 0 1.771 1.209 3.209 2.698 3.21l13.604.001c1.489 0 2.698-1.437 2.698-3.208Z"
                  fill="#324148" stroke="black" stroke-width="2.64px"
                  transform="matrix(.82679 -.4974 .41813 .69519 798.535 231.471)"/>
            <g>
                <path d="M292.484 163.35c-.824-6.723-6.952-11.512-13.675-10.688l-102.217 12.529c-6.723.824-11.512 6.951-10.688 13.674l2.987 24.363c.825 6.723 6.952 11.513 13.675 10.689l102.217-12.529c6.723-.824 11.512-6.952 10.688-13.675l-2.987-24.363Z"
                      fill="#646464" transform="matrix(.41597 .10371 -.10373 .41602 1358.154 64.99)"/>
            </g>
        </g>
        <g>
            <path d="M1409.57 204.851v7.671c0 3.927-.44 3.486 3.49 3.487l6.97.001c3.92 0 3.48.441 3.48-3.486l.01-7.67 7.66.001c3.93 0 3.49.441 3.49-3.486v-6.973c0-3.928.44-3.486-3.48-3.487l-7.67-.001v-7.67c0-3.928.44-3.487-3.49-3.487l-6.97-.001c-3.93-.001-3.48-.442-3.49 3.486v7.67l-7.67-.001c-3.92-.001-3.48-.442-3.48 3.485v6.973c-.01 3.928-.45 3.487 3.48 3.487l7.67.001Z"
                  fill="#202C33" stroke="black" stroke-width="2.47px"
                  transform="scale(.99616) rotate(3.69 1554.612 -418.196)"/>
            <path d="m1404.38 197.522 23.97.004c1.21 0 2.83.686 2.83.686s.02-.529.02-.837v-1.148c0-3.366.72-2.469-2.85-2.47l-8.11.015v-8.728c0-3.366.73-2.469-2.85-2.47l-1.6.025c-3.58 0-2.86-.897-2.86 2.469v8.728l-8.55-.042c-3.57-.001-2.85-.898-2.85 2.469v1.148c0 .343-.01.705-.01.705s1.68-.554 2.86-.554Z"
                  fill="#111618" transform="scale(.99616) rotate(3.69 1554.36 -411.436)"/>
            <path d="M1416.31 227.099c.65.034 7.43.271 14.96-4.534 4.6-2.936 8.13-8.613 8.13-8.613s-2.29 5.516-7.81 9.076c-6.85 4.426-14.58 4.109-15.28 4.071l-.05-.003.05.003Z"
                  fill="gray" transform="scale(.99616) rotate(7 1479.954 -129.036)"/>
            <g>
                <path d="M1440.8 187.23c-.54-1.094-1.28-2.319-2.27-3.454-2.73-3.126-7.33-5.888-11.41-7.712-3.35-1.502-7.11-3.206-11.67-3.572-4.12-.33-10.24 1.006-10.24 1.006s12.48-5.38 23.59.618c6.82 3.684 10.35 9.472 12 13.114.91 1.869 1.24 3.354 1.24 3.354s-.34-1.353-1.24-3.354Z"
                      fill="#3B3B3B" transform="scale(.99616) rotate(7 1479.954 -129.036)"/>
            </g>
        </g>
    </g>
    <g>
        <path d="M1484.47 23.611c19.24.016 19.47-10.351 37.06-13.878 9.6-1.924 21.77-.217 25.04.627 16.75 4.319 22.51 20.966 26.03 30.296 3.77 9.961 3.96 14.473 9.01 26.045 3.97 9.089 6.87 15.609 8.9 22.014 2.17 6.845 4.11 12.046 4.11 19.057 0 6.483-1.17 14.358-4.01 19.031-2.74 4.513-8.72 5.945-13.02 9.013-4.67 3.338-10.68 7.177-15.02 11.015-4.07 3.601-7.35 8.68-11.02 12.018-3.36 3.055-7.22 5.527-11.02 8.012-4.34 2.837-9.68 6.675-15.03 9.012a71.605 71.605 0 0 1-17.02 5.005c-7.18 1.167-17.7 2-26.05 1.998-8.04-.002-17.19-.838-24.03-2.008-5.83-.997-11.69-2.673-17.03-5.012-5.34-2.338-10.68-6.179-15.02-9.018-3.8-2.486-7.66-4.96-11.01-8.015-3.68-3.34-6.95-8.42-11.02-12.022-4.34-3.841-10.35-7.682-15.02-11.022-4.29-3.069-10.28-4.504-13.02-9.017-2.84-4.675-4.17-12.689-4-19.033.17-6.344 2.71-12.889 5.01-19.031 2.51-6.677 7.16-13.812 10.02-21.033 3.17-8.013 5.25-18.086 9.02-27.043 3.87-9.194 11.36-24.197 23.13-29.465 7.97-3.566 22.36-2.744 28.96-1.438 17.61 3.489 17.4 13.876 36.05 13.892Z"
              fill="#FEE32D" stroke="black" stroke-width="2.9px" transform="scale(.99616) rotate(7 1479.954 -129.036)"/>
        <path d="M1521.82 12.219c5.41-2.825 16.97-2.738 23.28-1.052 6.03 1.615 10.77 6.158 14.57 11.173 4.83 6.385 5.97 4.53 16.26 34.57 2.33 6.771 4.87 13.745 6.95 18.325 1.46 3.218 2.63 5.877 3.91 9.155 1.66 4.239 3.69 11.19 4.43 16.276.68 4.718 1.28 9.67 0 14.242-1.29 4.578-1.72 10.398-6.12 13.226-7.13 4.576-24 16.233-24 16.233-1.31-2.175 3.38-11.859-3.22-23.241-7.66-13.236-15.67-16.368-15.67-16.368s16.81-8.95 19.67-33.589c1.22-10.496-2.52-29.214-9.33-37.529-11.42-13.955-19.63-13.688-28.55-14.52-4.09-.382-3.79-6.056-2.18-6.901Z"
              fill="#FFDF26" transform="rotate(6.999 1474.311 -128.754) scale(.99616)"/>
        <path d="M1489.73 26.181s7.67-1.712 10.77-3.565c5.43-3.248 13.17-9.309 19.31-9.999 3.01-.338.82 3.116-.04 4.544-1.3 2.142-.83-.122-10.79 8.843-9.26 8.338-15.14 25.227-15.24 40.243-.05 6.97 5.56 22.796 7.01 23.037l-14.02-2.001s-1.48-19.371-1.01-29.048c.5-10.184 4.01-32.054 4.01-32.054Z"
              fill="#F0CC00" transform="rotate(6.999 1474.311 -128.754) scale(.99616)"/>
        <path d="M1404.61 143.389s-22.04-15.022-24.04-16.024c-5.58-2.788-5.84-13.542-6.01-20.032-.17-6.491 2.7-12.811 5.01-18.911 2.34-6.177 6.5-11.88 9.01-18.153 3.44-8.638 6.55-24.813 11.68-33.676 4.13-7.153 9.53-17.824 15.47-21.428 9.93-6.025 17.83-3.78 18.13-2.563.19.773-4.39 4.748-11.2 9.641-4.99 3.586-9.6 8.753-11.1 11.143-2.93 4.687-8.79 17.347-9.13 31.093-.13 5.343 1.63 15.901 2.61 19.463 1.57 5.666 3.57 16.875 3.57 19.379 0 2.24-2.06 3.977-3 6.011-1 2.17-2.48 4.523-3.01 7.012-.66 3.172-1.29 8.01-1 12.02.34 4.507 3.01 15.025 3.01 15.025Z"
              fill="#EFCC00" transform="rotate(6.999 1474.311 -128.754) scale(.99616)"/>
        <path d="M1552.81 19.744c1.25-1.908 6.83 1.031 8.31 3.095 1.73 2.397 2.76 8.85 1.95 9.246-1.15.565-3.21-4.395-4.88-6.727-1.73-2.397-5.87-4.862-5.38-5.614ZM1584.59 109.737c-1.25-.448-1.57 2.788-2.5 5.743-1.06 3.406-1.67 4.344-3.2 6.093-4.71 5.412-4.9 9.092-3.89 9.179 4.32.369 7.1-5.668 8.68-9.82.96-2.495 1.61-10.941.91-11.195ZM1473.1 23.129c.58-.602 3.71 1.295 4.73 2.597 1.02 1.301 1.96 4.612 1.38 5.214-.58.602-4.21-.873-5.22-2.175-1.02-1.302-1.47-5.034-.89-5.636Z"
              fill="white" transform="matrix(.99616 0 0 .99616 -24.023 4.699)"/>
        <g>
            <path d="M1528.21 22.677c16.93.003 30.67 18.93 30.66 42.239 0 23.309-13.75 42.23-30.67 42.227-16.93-.004-30.66-18.93-30.66-42.239.01-23.309 13.75-42.23 30.67-42.227Z"
                  fill="white" stroke="black" stroke-width="2.77px"
                  transform="scale(.99616) rotate(7 1479.954 -129.036)"/>
            <path d="M1484.005 75.094c5.25.645 8.997 5.438 8.352 10.694-.646 5.256-5.441 9-10.7 8.353-5.251-.646-8.998-5.439-8.353-10.696.655-5.255 5.44-8.998 10.7-8.351Z"/>
            <g>
                <path d="M1437.73 22.659c16.92.004 30.66 18.93 30.65 42.239 0 23.309-13.75 42.23-30.67 42.227-16.92-.003-30.66-18.93-30.66-42.239.01-23.309 13.75-42.23 30.68-42.227Z"
                      fill="white" stroke="black" stroke-width="2.77px"
                      transform="scale(.99616) rotate(7 1479.954 -129.036)"/>
                <path d="M1421.716 67.433c5.25.645 8.997 5.438 8.352 10.695-.646 5.256-5.44 8.998-10.7 8.351-5.25-.645-8.998-5.438-8.353-10.694.646-5.256 5.44-9 10.7-8.352Z"/>
            </g>
        </g>
        <g>
            <path d="M569.42 389.108c4.179-.262 21.769 3.708 32.553 3.475 19.296-.417 23.893-2.471 27.111-1.976 15.011 2.309 17.815 14.26 16.328 21.639-1.851 9.191-9.038 24.657-45.425 24.425-41.638-.265-47.722-21.635-46.576-31.408 1.567-13.363 11.155-15.851 16.009-16.155Z"
                  fill="#F0CC00" stroke="black" stroke-width="2.83px"
                  transform="matrix(.95596 .11687 -.12433 1.01703 899.223 -245.533)"/>
            <path d="M587.362 396.695c5.466-.322 10.13.018 16.749-.662 10.043-1.034 16.1-3.821 23.185-4.799 7.084-.978 13.223 3.198 16.43 8.06 3.636 5.51 2.806 10.165 2.071 13.484-2.825 12.743-14.471 20.247-43.172 19.946-11.318-.119-17.1-.841-25.347-5.942-6.222-3.849-11.212-14.444-8.002-21.748 3.715-8.451 12.918-8.035 18.086-8.339Z"
                  fill="#FEE32D" transform="matrix(.92066 .11255 -.11974 .97947 918.363 -227.391)"/>
            <path d="M859.405 400.127c1-.001 3.957 1.358 5.001 2.997 1.168 1.833 2.004 6.665 2.004 7.999.001.666-1.528.472-2 .001-.667-.666-1.107-2.807-2.002-3.999-1-1.333-3.501-2.832-4.002-3.998-.416-.969-.001-3 .999-3Z"
                  fill="white" transform="matrix(.95596 .11687 -.11688 .95608 678.584 -250.258)"/>
        </g>
        <g>
            <path d="M590.975 316.747c38.347-3.871 71.334 5.44 73.618 20.778 2.283 15.339-26.996 30.935-65.343 34.806-38.347 3.871-71.334-5.44-73.617-20.779-2.284-15.339 26.995-30.934 65.342-34.805Z"
                  style="fill-opacity:.27" transform="matrix(.96807 .24137 -.29313 1.17566 961.958 -394.9)"/>
            <path d="m1532.52 170.866 12.02-7.01-4.02 48.08-8-41.07ZM1430.36 170.846l-12.02-7.014 4 48.081 8.02-41.067Z"
                  fill="white" stroke="black" stroke-width="2.9px"
                  transform="scale(.99616) rotate(7 1479.954 -129.036)"/>
            <path d="M584.086 297.961c36.426.009 65.991 9.875 65.981 22.017-.011 12.142-29.593 21.992-66.02 21.983-36.426-.01-65.991-9.876-65.98-22.018.01-12.142 29.592-21.992 66.019-21.982Z"
                  fill="#FEE32D" stroke="black" stroke-width="1.72px"
                  transform="matrix(1.14775 .14146 -.25521 2.0707 855.265 -610.623)"/>
            <path d="M3478.21 257.973s-50.43 18.356-50.45 65.29c-.03 46.935 49 63.602 49 63.602s-65.58-16.675-65.55-63.61c.02-46.934 67-65.282 67-65.282Z"
                  fill="#E8C500" transform="matrix(.58397 .07197 -.07198 .58404 -596.84 -308.686)"/>
            <path d="M564.004 297.373c7.727.004 13.999 2.919 13.997 6.506-.002 3.588-6.277 6.498-14.004 6.494-7.727-.003-13.998-2.918-13.996-6.505.002-3.588 6.277-6.498 14.003-6.495Z"
                  fill="#F7DB27" transform="matrix(1.13933 .14042 -.16204 1.31476 878.913 -341.193)"/>
            <path d="M3456.32 281.48c2.23-9.101 16.78-16.132 34.38-16.123 19.13.009 34.66 8.337 34.65 18.585 0 5.851-5.07 11.071-12.97 14.471.19-.795.29-1.605.29-2.428.01-10.249-15.52-18.576-34.65-18.586-8.21-.004-15.75 1.525-21.7 4.081Z"
                  fill="#CDB100" transform="matrix(.46018 .05672 -.05672 .46023 -118.008 -191.005)"/>
            <path d="M564.004 297.352c7.727.003 13.999 2.918 13.997 6.505-.002 3.588-6.277 6.498-14.004 6.495-7.727-.004-13.998-2.919-13.996-6.506.002-3.588 6.277-6.498 14.003-6.494Z"
                  fill="#F7DB27" transform="matrix(1.13933 .14042 -.16204 1.31476 819.5 -348.515)"/>
            <path d="M3456.32 281.418c2.23-9.102 16.78-16.132 34.38-16.124 19.13.009 34.66 8.337 34.65 18.586 0 5.85-5.07 11.07-12.97 14.471.19-.795.29-1.606.29-2.429.01-10.248-15.52-18.576-34.65-18.585-8.21-.004-15.75 1.524-21.7 4.081Z"
                  fill="#CDB100" transform="matrix(.46018 .05672 -.05672 .46023 -177.421 -198.327)"/>
            <g>
                <path d="M1505.26 121.885c1.02-1.529 7.67 3.88 8.31 4.724.78 1.045 7.03 5.436 4.18 7.893-2.93 2.518-4.64-3.501-6.83-5.648-2-1.963-7.51-4.168-5.66-6.969Z"
                      fill="white" transform="matrix(.99027 .12158 -.12162 .99039 23.226 -190.284)"/>
            </g>
        </g>
    </g>
</svg>
